# xmcd CD database file
#
# Track frame offsets:
#	150
#	10963
#	24635
#	38600
#	51141
#	65274
#	78082
#	92603
#	108557
#	121972
#	134403
#	148219
#	161910
#	173932
#	185096
#	199208
#	213921
#	226913
#
# Disc length: 3163 seconds
#
# Revision: 0
# Processed by: cddbd v1.5.2PL0 Copyright (c) Steve Scherf et al.
# Submitted via: CDex 1.79
#
DISCID=fb0c5912
DTITLE=Count Basie - Jazz Giants CD1
DYEAR=2004
DGENRE=Jazz
TTITLE0=Shine On, Harvest Moon
TTITLE1=Twelfth Street Rag
TTITLE2=Meet Me At No Special Place
TTITLE3=I'm Drowning In Your Deep Blue Eyes
TTITLE4=Futile Frustration
TTITLE5=Sugar
TTITLE6=The Jungle King
TTITLE7=Take A little Off The Top
TTITLE8=How Long Blues
TTITLE9=If I Didn't Care
TTITLE10=And The Angels Sing
TTITLE11=Song Of The Islands
TTITLE12=I Can't Beleive That You're In Love With Me
TTITLE13=Clap Hands, Here Comes Charlie
TTITLE14=This Heart Of Mine
TTITLE15=That Old Feeling
TTITLE16=Blue Skies
TTITLE17=Jivin' Joe Jackson
EXTD=YEAR: 2004
EXTT0=
EXTT1=
EXTT2=
EXTT3=
EXTT4=
EXTT5=
EXTT6=
EXTT7=
EXTT8=
EXTT9=
EXTT10=
EXTT11=
EXTT12=
EXTT13=
EXTT14=
EXTT15=
EXTT16=
EXTT17=
PLAYORDER=
